<?xml version="1.0" encoding="utf-8"?>
<!-- Generator: Adobe Illustrator 16.0.0, SVG Export Plug-In . SVG Version: 6.00 Build 0)  -->
<!DOCTYPE svg PUBLIC "-//W3C//DTD SVG 1.1//EN" "http://www.w3.org/Graphics/SVG/1.1/DTD/svg11.dtd">
<svg version="1.1" id="Layer_1" xmlns="http://www.w3.org/2000/svg" xmlns:xlink="http://www.w3.org/1999/xlink" x="0px" y="0px"
	 width="21px" height="24px" viewBox="0 0 21 24" enable-background="new 0 0 21 24" xml:space="preserve">
<g>
	<path fill="#A5A9AA" d="M9,16.832c-0.379,0-0.707-0.216-0.858-0.562l-0.446-1.026l-0.787,0.78
		c-0.271,0.263-0.657,0.338-1.008,0.192c-0.35-0.145-0.572-0.471-0.578-0.849l-0.02-1.119l-1.025,0.421
		c-0.353,0.138-0.738,0.058-1.005-0.21c-0.269-0.267-0.349-0.652-0.21-1.005l0.41-1.041l-1.108-0.004
		c-0.378-0.007-0.704-0.229-0.848-0.578c-0.146-0.35-0.072-0.735,0.19-1.009l0.777-0.805L1.462,9.59
		c-0.348-0.15-0.563-0.48-0.563-0.858c0-0.379,0.216-0.708,0.563-0.858l1.026-0.446L1.707,6.64C1.444,6.367,1.37,5.98,1.516,5.631
		c0.145-0.35,0.47-0.571,0.849-0.577l1.118-0.021l-0.42-1.025C2.924,3.655,3.004,3.271,3.271,3.003s0.653-0.348,1.006-0.209
		l1.04,0.41l0.005-1.109C5.328,1.716,5.551,1.392,5.9,1.247c0.351-0.146,0.736-0.071,1.008,0.191l0.805,0.777l0.429-1.022
		C8.293,0.847,8.621,0.631,9,0.631s0.708,0.216,0.858,0.562l0.447,1.026l0.787-0.781c0.272-0.264,0.659-0.336,1.008-0.191
		c0.351,0.146,0.57,0.47,0.578,0.849l0.02,1.118l1.025-0.42c0.353-0.138,0.737-0.059,1.005,0.209
		c0.269,0.268,0.349,0.652,0.21,1.005l-0.411,1.041l1.108,0.005c0.379,0.006,0.704,0.228,0.85,0.577
		c0.145,0.35,0.071,0.736-0.191,1.009l-0.778,0.805l1.022,0.429c0.348,0.15,0.563,0.479,0.563,0.858
		c0,0.378-0.216,0.707-0.562,0.858l-1.017,0.441l0.771,0.791c0.263,0.273,0.336,0.659,0.19,1.009
		c-0.145,0.35-0.47,0.571-0.849,0.578l-1.119,0.02l0.422,1.025c0.139,0.353,0.059,0.738-0.21,1.006
		c-0.268,0.267-0.651,0.347-1.005,0.209l-1.041-0.41l-0.004,1.108c-0.008,0.378-0.228,0.703-0.578,0.848
		c-0.35,0.145-0.735,0.072-1.008-0.19l-0.806-0.777L9.858,16.27C9.708,16.616,9.379,16.832,9,16.832 M7.706,14.303
		c0.061,0,0.121,0.006,0.183,0.018c0.301,0.061,0.553,0.264,0.675,0.545l0.447,1.026l0.425-1.026
		c0.123-0.281,0.374-0.484,0.676-0.545c0.301-0.062,0.613,0.031,0.834,0.245l0.805,0.776v-1.11c0.007-0.307,0.162-0.592,0.417-0.763
		c0.256-0.17,0.577-0.204,0.862-0.092l1.041,0.409l-0.424-1.025c-0.113-0.285-0.078-0.608,0.092-0.863
		c0.171-0.255,0.456-0.411,0.763-0.416l1.119-0.02l-0.786-0.785c-0.212-0.222-0.304-0.532-0.244-0.834
		c0.06-0.301,0.263-0.553,0.544-0.676h0.002l1.025-0.446l-1.025-0.426c-0.282-0.122-0.486-0.374-0.546-0.676
		c-0.06-0.301,0.032-0.612,0.244-0.832l0.776-0.806L14.501,5.98c-0.307-0.005-0.592-0.16-0.763-0.416
		c-0.17-0.254-0.205-0.577-0.092-0.863l0.409-1.04l-1.026,0.424c-0.285,0.112-0.607,0.079-0.862-0.092s-0.41-0.455-0.417-0.763
		l-0.019-1.118l-0.786,0.784c-0.221,0.214-0.533,0.306-0.834,0.245C9.81,3.082,9.559,2.878,9.436,2.597L8.989,1.571L8.563,2.597
		C8.441,2.878,8.189,3.082,7.889,3.142C7.587,3.202,7.276,3.11,7.055,2.897L6.251,2.119L6.25,3.23
		C6.244,3.537,6.089,3.822,5.834,3.992C5.58,4.164,5.256,4.198,4.971,4.085L3.93,3.675l0.425,1.026
		c0.112,0.286,0.077,0.609-0.094,0.864C4.091,5.82,3.806,5.976,3.5,5.98L2.381,6.001l0.785,0.785
		C3.379,7.007,3.47,7.317,3.411,7.619C3.352,7.92,3.147,8.173,2.866,8.295L1.84,8.742l1.026,0.425
		C3.147,9.29,3.352,9.543,3.411,9.844c0.059,0.301-0.032,0.612-0.245,0.833L2.389,11.48L3.5,11.481
		c0.306,0.005,0.591,0.16,0.761,0.416c0.171,0.255,0.206,0.577,0.094,0.863l-0.41,1.04l1.026-0.424
		c0.285-0.112,0.609-0.078,0.863,0.093c0.256,0.171,0.41,0.455,0.416,0.762l0.02,1.119l0.785-0.785
		C7.231,14.395,7.465,14.303,7.706,14.303 M15.324,9.602l0.188,0.435l0,0L15.324,9.602z"/>
	<path fill="#A5A9AA" d="M6.718,23.369c-0.191,0-0.364-0.115-0.438-0.293L5.46,21.098L3.48,21.917
		c-0.168,0.069-0.361,0.037-0.497-0.084s-0.189-0.309-0.14-0.484l2.191-7.657c0.037-0.13,0.128-0.237,0.25-0.296
		c0.122-0.06,0.262-0.062,0.388-0.011c0.345,0.145,0.571,0.477,0.577,0.847l0.02,1.119l0.785-0.785
		c0.222-0.214,0.532-0.307,0.834-0.245c0.301,0.06,0.553,0.264,0.675,0.545l0.441,1.014c0.09,0.119,0.13,0.289,0.089,0.432
		l-1.922,6.715c-0.055,0.194-0.227,0.332-0.428,0.343C6.734,23.369,6.727,23.369,6.718,23.369 M5.716,20.005
		c0.062,0,0.124,0.012,0.182,0.036c0.116,0.048,0.208,0.14,0.256,0.257l0.481,1.162l1.494-5.221l-0.434-0.996l-0.787,0.78
		c-0.271,0.264-0.657,0.336-1.008,0.191c-0.213-0.088-0.379-0.243-0.478-0.437l-1.398,4.888l1.511-0.625
		C5.593,20.017,5.654,20.005,5.716,20.005 M9.01,15.891L9.01,15.891L9.01,15.891z"/>
	<path fill="#A5A9AA" d="M11.282,23.369c-0.008,0-0.017,0-0.025-0.001c-0.202-0.011-0.374-0.148-0.429-0.343l-1.922-6.715
		c-0.042-0.145-0.012-0.303,0.081-0.421l0.448-1.024c0.123-0.281,0.375-0.485,0.676-0.545c0.302-0.062,0.613,0.031,0.834,0.245
		l0.805,0.776v-1.11V14.23c0.007-0.37,0.234-0.702,0.578-0.846c0.125-0.052,0.267-0.048,0.388,0.011
		c0.122,0.059,0.213,0.166,0.25,0.296l2.19,7.657c0.051,0.176-0.004,0.363-0.139,0.484c-0.136,0.121-0.329,0.153-0.497,0.084
		l-1.98-0.819l-0.82,1.979C11.646,23.254,11.474,23.369,11.282,23.369 M9.871,16.239l1.494,5.221l0.481-1.162
		c0.101-0.243,0.378-0.356,0.619-0.257l1.511,0.625l-1.399-4.888c-0.098,0.193-0.264,0.349-0.477,0.437
		c-0.349,0.145-0.736,0.072-1.008-0.19l-0.806-0.777L9.871,16.239z"/>
	<path fill="#A5A9AA" d="M9,12.994c-2.351,0-4.264-1.912-4.264-4.263S6.649,4.468,9,4.468c2.352,0,4.264,1.913,4.264,4.264
		S11.352,12.994,9,12.994 M9,5.415c-1.828,0-3.315,1.488-3.315,3.316S7.172,12.047,9,12.047s3.316-1.487,3.316-3.315
		S10.828,5.415,9,5.415"/>
</g>
</svg>
