<?xml version="1.0" encoding="utf-8"?>
<!-- Generator: Adobe Illustrator 16.0.0, SVG Export Plug-In . SVG Version: 6.00 Build 0)  -->
<!DOCTYPE svg PUBLIC "-//W3C//DTD SVG 1.1//EN" "http://www.w3.org/Graphics/SVG/1.1/DTD/svg11.dtd">
<svg version="1.1" xmlns="http://www.w3.org/2000/svg" xmlns:xlink="http://www.w3.org/1999/xlink" x="0px" y="0px"
	 width="85.125px" height="18px" viewBox="0 0 85.125 18" enable-background="new 0 0 85.125 18" xml:space="preserve">
<g id="FULL">
	<g>
		<path fill="#D69C46" d="M9.136,1.644l1.959,3.972c0.103,0.206,0.303,0.351,0.531,0.386l4.383,0.636
			c0.58,0.083,0.811,0.796,0.391,1.207l-3.168,3.089c-0.168,0.164-0.244,0.396-0.205,0.627l0.748,4.363
			c0.1,0.577-0.506,1.019-1.027,0.745l-3.918-2.061c-0.205-0.107-0.452-0.107-0.66,0l-3.917,2.061
			c-0.519,0.273-1.126-0.168-1.026-0.745l0.748-4.363c0.04-0.23-0.036-0.463-0.203-0.627L0.601,7.844
			C0.18,7.434,0.414,6.721,0.992,6.637l4.383-0.636c0.229-0.035,0.428-0.18,0.53-0.386l1.961-3.972
			C8.125,1.117,8.875,1.117,9.136,1.644"/>
	</g>
	<g>
		<path fill="#D69C46" d="M26.136,1.644l1.959,3.972c0.103,0.206,0.303,0.351,0.531,0.386l4.383,0.636
			c0.58,0.083,0.811,0.796,0.391,1.207l-3.168,3.089c-0.168,0.164-0.244,0.396-0.205,0.627l0.748,4.363
			c0.1,0.577-0.506,1.019-1.027,0.745l-3.919-2.061c-0.205-0.107-0.451-0.107-0.659,0l-3.917,2.061
			c-0.519,0.273-1.126-0.168-1.026-0.745l0.748-4.363c0.039-0.23-0.036-0.463-0.203-0.627l-3.169-3.089
			c-0.421-0.41-0.188-1.123,0.391-1.207l4.383-0.636c0.229-0.035,0.428-0.18,0.529-0.386l1.962-3.972
			C25.125,1.117,25.875,1.117,26.136,1.644"/>
	</g>
	<g display="none">
		<path display="inline" fill="#D69C46" d="M43.137,1.644l1.959,3.972c0.103,0.206,0.303,0.351,0.531,0.386l4.383,0.636
			c0.58,0.083,0.811,0.796,0.391,1.207l-3.168,3.089c-0.168,0.164-0.244,0.396-0.205,0.627l0.748,4.363
			c0.1,0.577-0.506,1.019-1.027,0.745l-3.919-2.061c-0.205-0.107-0.451-0.107-0.659,0l-3.917,2.061
			c-0.52,0.273-1.126-0.168-1.026-0.745l0.747-4.363c0.04-0.23-0.035-0.463-0.202-0.627l-3.169-3.089
			c-0.422-0.41-0.188-1.123,0.391-1.207l4.383-0.636c0.229-0.035,0.428-0.18,0.529-0.386l1.962-3.972
			C42.126,1.117,42.876,1.117,43.137,1.644"/>
	</g>
	<g display="none">
		<path display="inline" fill="#D69C46" d="M60.137,1.644l1.959,3.972c0.103,0.206,0.303,0.351,0.531,0.386l4.383,0.636
			c0.58,0.083,0.811,0.796,0.391,1.207l-3.168,3.089c-0.168,0.164-0.244,0.396-0.205,0.627l0.748,4.363
			c0.1,0.577-0.506,1.019-1.027,0.745l-3.919-2.061c-0.205-0.107-0.451-0.107-0.659,0l-3.917,2.061
			c-0.519,0.273-1.126-0.168-1.026-0.745l0.748-4.363c0.039-0.23-0.036-0.463-0.203-0.627l-3.169-3.089
			c-0.421-0.41-0.188-1.123,0.391-1.207l4.383-0.636c0.229-0.035,0.428-0.18,0.529-0.386l1.962-3.972
			C59.126,1.117,59.876,1.117,60.137,1.644"/>
	</g>
	<g display="none">
		<path display="inline" fill="#D69C46" d="M77.137,1.644l1.959,3.972c0.103,0.206,0.303,0.351,0.531,0.386l4.383,0.636
			c0.58,0.083,0.811,0.796,0.391,1.207l-3.168,3.089c-0.168,0.164-0.244,0.396-0.205,0.627l0.748,4.363
			c0.1,0.577-0.506,1.019-1.027,0.745l-3.919-2.061c-0.205-0.107-0.451-0.107-0.659,0l-3.917,2.061
			c-0.519,0.273-1.126-0.168-1.026-0.745l0.748-4.363c0.039-0.23-0.036-0.463-0.203-0.627l-3.169-3.089
			c-0.421-0.41-0.188-1.123,0.391-1.207l4.383-0.636c0.229-0.035,0.428-0.18,0.529-0.386l1.962-3.972
			C76.126,1.117,76.876,1.117,77.137,1.644"/>
	</g>
</g>
<g id="MED">
	<g display="none">
		<g display="inline">
			<path fill="none" stroke="#D69C46" stroke-width="0.25" stroke-miterlimit="10" d="M9.136,1.644l1.959,3.972
				c0.103,0.206,0.303,0.351,0.531,0.386l4.383,0.636c0.58,0.083,0.811,0.796,0.391,1.207l-3.168,3.089
				c-0.168,0.164-0.244,0.396-0.205,0.627l0.748,4.363c0.1,0.577-0.506,1.019-1.027,0.745l-3.918-2.061
				c-0.205-0.107-0.452-0.107-0.66,0l-3.917,2.061c-0.519,0.273-1.126-0.168-1.026-0.745l0.748-4.363
				c0.04-0.23-0.036-0.463-0.203-0.627L0.601,7.844C0.18,7.434,0.414,6.721,0.992,6.637l4.383-0.636
				c0.229-0.035,0.428-0.18,0.53-0.386l1.961-3.972C8.125,1.117,8.875,1.117,9.136,1.644"/>
		</g>
		<path display="inline" fill="#D69C46" d="M8.562,1.266C8.289,1.241,8.007,1.358,7.866,1.644L5.904,5.616
			C5.803,5.822,5.604,5.967,5.375,6.001L0.992,6.637C0.414,6.721,0.18,7.434,0.602,7.844l3.169,3.089
			c0.167,0.164,0.242,0.396,0.202,0.627l-0.747,4.363c-0.1,0.577,0.507,1.019,1.026,0.745l3.917-2.061
			c0.124-0.063,0.259-0.077,0.393-0.065V1.266z"/>
	</g>
	<g display="none">
		<g display="inline">
			<path fill="none" stroke="#D69C46" stroke-width="0.25" stroke-miterlimit="10" d="M26.136,1.644l1.959,3.972
				c0.103,0.206,0.303,0.351,0.531,0.386l4.383,0.636c0.58,0.083,0.811,0.796,0.391,1.207l-3.168,3.089
				c-0.168,0.164-0.244,0.396-0.205,0.627l0.748,4.363c0.1,0.577-0.506,1.019-1.027,0.745l-3.919-2.061
				c-0.205-0.107-0.451-0.107-0.659,0l-3.917,2.061c-0.519,0.273-1.126-0.168-1.026-0.745l0.748-4.363
				c0.039-0.23-0.036-0.463-0.203-0.627l-3.169-3.089c-0.421-0.41-0.188-1.123,0.391-1.207l4.383-0.636
				c0.229-0.035,0.428-0.18,0.529-0.386l1.962-3.972C25.125,1.117,25.875,1.117,26.136,1.644"/>
		</g>
		<path display="inline" fill="#D69C46" d="M25.562,1.266c-0.272-0.024-0.555,0.093-0.695,0.378l-1.962,3.972
			c-0.102,0.206-0.301,0.351-0.529,0.386l-4.383,0.636c-0.578,0.083-0.812,0.796-0.391,1.207l3.169,3.089
			c0.167,0.164,0.242,0.396,0.202,0.627l-0.747,4.363c-0.1,0.577,0.507,1.019,1.026,0.745l3.917-2.061
			c0.124-0.063,0.259-0.077,0.393-0.065V1.266z"/>
	</g>
	<g display="none">
		<g display="inline">
			<path fill="none" stroke="#D69C46" stroke-width="0.25" stroke-miterlimit="10" d="M43.137,1.644l1.959,3.972
				c0.103,0.206,0.303,0.351,0.531,0.386l4.383,0.636c0.58,0.083,0.811,0.796,0.391,1.207l-3.168,3.089
				c-0.168,0.164-0.244,0.396-0.205,0.627l0.748,4.363c0.1,0.577-0.506,1.019-1.027,0.745l-3.919-2.061
				c-0.205-0.107-0.451-0.107-0.659,0l-3.917,2.061c-0.52,0.273-1.126-0.168-1.026-0.745l0.747-4.363
				c0.04-0.23-0.035-0.463-0.202-0.627l-3.169-3.089c-0.422-0.41-0.188-1.123,0.391-1.207l4.383-0.636
				c0.229-0.035,0.428-0.18,0.529-0.386l1.962-3.972C42.126,1.117,42.876,1.117,43.137,1.644"/>
		</g>
		<path display="inline" fill="#D69C46" d="M42.562,1.266c-0.272-0.024-0.555,0.093-0.695,0.378l-1.962,3.972
			c-0.102,0.206-0.301,0.351-0.529,0.386l-4.383,0.636c-0.578,0.083-0.812,0.796-0.391,1.207l3.169,3.089
			c0.167,0.164,0.242,0.396,0.202,0.627l-0.747,4.363c-0.1,0.577,0.507,1.019,1.026,0.745l3.917-2.061
			c0.124-0.063,0.259-0.077,0.393-0.065V1.266z"/>
	</g>
	<g display="none">
		<g display="inline">
			<path fill="none" stroke="#D69C46" stroke-width="0.25" stroke-miterlimit="10" d="M60.137,1.644l1.959,3.972
				c0.103,0.206,0.303,0.351,0.531,0.386l4.383,0.636c0.58,0.083,0.811,0.796,0.391,1.207l-3.168,3.089
				c-0.168,0.164-0.244,0.396-0.205,0.627l0.748,4.363c0.1,0.577-0.506,1.019-1.027,0.745l-3.919-2.061
				c-0.205-0.107-0.451-0.107-0.659,0l-3.917,2.061c-0.519,0.273-1.126-0.168-1.026-0.745l0.748-4.363
				c0.039-0.23-0.036-0.463-0.203-0.627l-3.169-3.089c-0.421-0.41-0.188-1.123,0.391-1.207l4.383-0.636
				c0.229-0.035,0.428-0.18,0.529-0.386l1.962-3.972C59.126,1.117,59.876,1.117,60.137,1.644"/>
		</g>
		<path display="inline" fill="#D69C46" d="M59.562,1.266c-0.272-0.024-0.555,0.093-0.695,0.378l-1.962,3.972
			c-0.102,0.206-0.301,0.351-0.529,0.386l-4.383,0.636c-0.578,0.083-0.812,0.796-0.391,1.207l3.169,3.089
			c0.167,0.164,0.242,0.396,0.202,0.627l-0.747,4.363c-0.1,0.577,0.507,1.019,1.026,0.745l3.917-2.061
			c0.124-0.063,0.259-0.077,0.393-0.065V1.266z"/>
	</g>
	<g display="none">
		<g display="inline">
			<path fill="none" stroke="#D69C46" stroke-width="0.25" stroke-miterlimit="10" d="M77.137,1.644l1.959,3.972
				c0.103,0.206,0.303,0.351,0.531,0.386l4.383,0.636c0.58,0.083,0.811,0.796,0.391,1.207l-3.168,3.089
				c-0.168,0.164-0.244,0.396-0.205,0.627l0.748,4.363c0.1,0.577-0.506,1.019-1.027,0.745l-3.919-2.061
				c-0.205-0.107-0.451-0.107-0.659,0l-3.917,2.061c-0.519,0.273-1.126-0.168-1.026-0.745l0.748-4.363
				c0.039-0.23-0.036-0.463-0.203-0.627l-3.169-3.089c-0.421-0.41-0.188-1.123,0.391-1.207l4.383-0.636
				c0.229-0.035,0.428-0.18,0.529-0.386l1.962-3.972C76.126,1.117,76.876,1.117,77.137,1.644"/>
		</g>
		<path display="inline" fill="#D69C46" d="M76.562,1.266c-0.272-0.024-0.555,0.093-0.695,0.378l-1.962,3.972
			c-0.102,0.206-0.301,0.351-0.529,0.386l-4.383,0.636c-0.578,0.083-0.812,0.796-0.391,1.207l3.169,3.089
			c0.167,0.164,0.242,0.396,0.202,0.627l-0.747,4.363c-0.1,0.577,0.507,1.019,1.026,0.745l3.917-2.061
			c0.124-0.063,0.259-0.077,0.393-0.065V1.266z"/>
	</g>
</g>
<g id="OUTLINE">
	<g>
		<path fill="none" stroke="#D69C46" stroke-width="0.5" stroke-miterlimit="10" d="M9.136,1.644l1.959,3.972
			c0.103,0.206,0.303,0.351,0.531,0.386l4.383,0.636c0.58,0.083,0.811,0.796,0.391,1.207l-3.168,3.089
			c-0.168,0.164-0.244,0.396-0.205,0.627l0.748,4.363c0.1,0.577-0.506,1.019-1.027,0.745l-3.918-2.061
			c-0.205-0.107-0.452-0.107-0.66,0l-3.917,2.061c-0.519,0.273-1.126-0.168-1.026-0.745l0.748-4.363
			c0.04-0.23-0.036-0.463-0.203-0.627L0.601,7.844C0.18,7.434,0.414,6.721,0.992,6.637l4.383-0.636
			c0.229-0.035,0.428-0.18,0.53-0.386l1.961-3.972C8.125,1.117,8.875,1.117,9.136,1.644"/>
	</g>
	<g>
		<path fill="none" stroke="#D69C46" stroke-width="0.5" stroke-miterlimit="10" d="M26.136,1.644l1.959,3.972
			c0.103,0.206,0.303,0.351,0.531,0.386l4.383,0.636c0.58,0.083,0.811,0.796,0.391,1.207l-3.168,3.089
			c-0.168,0.164-0.244,0.396-0.205,0.627l0.748,4.363c0.1,0.577-0.506,1.019-1.027,0.745l-3.919-2.061
			c-0.205-0.107-0.451-0.107-0.659,0l-3.917,2.061c-0.519,0.273-1.126-0.168-1.026-0.745l0.748-4.363
			c0.039-0.23-0.036-0.463-0.203-0.627l-3.169-3.089c-0.421-0.41-0.188-1.123,0.391-1.207l4.383-0.636
			c0.229-0.035,0.428-0.18,0.529-0.386l1.962-3.972C25.125,1.117,25.875,1.117,26.136,1.644"/>
	</g>
	<g>
		<path fill="none" stroke="#D69C46" stroke-width="0.5" stroke-miterlimit="10" d="M43.137,1.644l1.959,3.972
			c0.103,0.206,0.303,0.351,0.531,0.386l4.383,0.636c0.58,0.083,0.811,0.796,0.391,1.207l-3.168,3.089
			c-0.168,0.164-0.244,0.396-0.205,0.627l0.748,4.363c0.1,0.577-0.506,1.019-1.027,0.745l-3.919-2.061
			c-0.205-0.107-0.451-0.107-0.659,0l-3.917,2.061c-0.52,0.273-1.126-0.168-1.026-0.745l0.747-4.363
			c0.04-0.23-0.035-0.463-0.202-0.627l-3.169-3.089c-0.422-0.41-0.188-1.123,0.391-1.207l4.383-0.636
			c0.229-0.035,0.428-0.18,0.529-0.386l1.962-3.972C42.126,1.117,42.876,1.117,43.137,1.644"/>
	</g>
	<g>
		<path fill="none" stroke="#D69C46" stroke-width="0.5" stroke-miterlimit="10" d="M60.137,1.644l1.959,3.972
			c0.103,0.206,0.303,0.351,0.531,0.386l4.383,0.636c0.58,0.083,0.811,0.796,0.391,1.207l-3.168,3.089
			c-0.168,0.164-0.244,0.396-0.205,0.627l0.748,4.363c0.1,0.577-0.506,1.019-1.027,0.745l-3.919-2.061
			c-0.205-0.107-0.451-0.107-0.659,0l-3.917,2.061c-0.519,0.273-1.126-0.168-1.026-0.745l0.748-4.363
			c0.039-0.23-0.036-0.463-0.203-0.627l-3.169-3.089c-0.421-0.41-0.188-1.123,0.391-1.207l4.383-0.636
			c0.229-0.035,0.428-0.18,0.529-0.386l1.962-3.972C59.126,1.117,59.876,1.117,60.137,1.644"/>
	</g>
	<g>
		<path fill="none" stroke="#D69C46" stroke-width="0.5" stroke-miterlimit="10" d="M77.137,1.644l1.959,3.972
			c0.103,0.206,0.303,0.351,0.531,0.386l4.383,0.636c0.58,0.083,0.811,0.796,0.391,1.207l-3.168,3.089
			c-0.168,0.164-0.244,0.396-0.205,0.627l0.748,4.363c0.1,0.577-0.506,1.019-1.027,0.745l-3.919-2.061
			c-0.205-0.107-0.451-0.107-0.659,0l-3.917,2.061c-0.519,0.273-1.126-0.168-1.026-0.745l0.748-4.363
			c0.039-0.23-0.036-0.463-0.203-0.627l-3.169-3.089c-0.421-0.41-0.188-1.123,0.391-1.207l4.383-0.636
			c0.229-0.035,0.428-0.18,0.529-0.386l1.962-3.972C76.126,1.117,76.876,1.117,77.137,1.644"/>
	</g>
</g>
</svg>
