<?xml version="1.0" encoding="utf-8"?>
<!-- Generator: Adobe Illustrator 16.0.0, SVG Export Plug-In . SVG Version: 6.00 Build 0)  -->
<!DOCTYPE svg PUBLIC "-//W3C//DTD SVG 1.1//EN" "http://www.w3.org/Graphics/SVG/1.1/DTD/svg11.dtd">
<svg version="1.1" id="Layer_1" xmlns="http://www.w3.org/2000/svg" xmlns:xlink="http://www.w3.org/1999/xlink" x="0px" y="0px"
	 width="61px" height="18px" viewBox="0 0 61 18" enable-background="new 0 0 61 18" xml:space="preserve">
<g>
	<path fill="#D69C46" d="M9.136,1.644l1.959,3.972c0.103,0.206,0.303,0.351,0.531,0.386l4.383,0.636
		c0.58,0.083,0.811,0.796,0.391,1.207l-3.168,3.089c-0.168,0.164-0.244,0.396-0.205,0.627l0.748,4.363
		c0.1,0.577-0.506,1.019-1.027,0.745l-3.918-2.061c-0.205-0.107-0.452-0.107-0.66,0l-3.917,2.061
		c-0.519,0.273-1.126-0.168-1.026-0.745l0.748-4.363c0.04-0.23-0.036-0.463-0.203-0.627L0.601,7.844
		C0.18,7.434,0.414,6.721,0.992,6.637l4.383-0.636c0.229-0.035,0.428-0.18,0.53-0.386l1.961-3.972
		C8.125,1.117,8.875,1.117,9.136,1.644"/>
</g>
</svg>
