<?xml version="1.0" encoding="utf-8"?>
<!-- Generator: Adobe Illustrator 16.0.0, SVG Export Plug-In . SVG Version: 6.00 Build 0)  -->
<!DOCTYPE svg PUBLIC "-//W3C//DTD SVG 1.1//EN" "http://www.w3.org/Graphics/SVG/1.1/DTD/svg11.dtd">
<svg version="1.1" id="Layer_1" xmlns="http://www.w3.org/2000/svg" xmlns:xlink="http://www.w3.org/1999/xlink" x="0px" y="0px"
	 width="24px" height="24px" viewBox="0 0 24 24" enable-background="new 0 0 24 24" xml:space="preserve">
<g>
	<path fill-rule="evenodd" clip-rule="evenodd" fill="#4D4C51" d="M14.939,17.238c0.333-0.414,1.492-2.321,3.233-1.741
		c1.824,0.581,6.385,2.156,4.229,4.975C15.189,30.256-6.371,8.616,3.331,1.401C6.15-0.671,7.726,3.806,8.307,5.63
		c0.58,1.825-1.245,2.902-1.742,3.234C5.321,10.025,13.861,18.482,14.939,17.238"/>
	<path fill-rule="evenodd" clip-rule="evenodd" fill="#D69C46" d="M20.106,6.894c0,1.747-1.417,3.163-3.162,3.163
		c-1.748,0-3.163-1.416-3.163-3.163c0-1.747,1.415-3.163,3.163-3.163C18.689,3.731,20.106,5.147,20.106,6.894"/>
</g>
</svg>
