<?xml version="1.0" encoding="utf-8"?>
<!-- Generator: Adobe Illustrator 16.0.0, SVG Export Plug-In . SVG Version: 6.00 Build 0)  -->
<!DOCTYPE svg PUBLIC "-//W3C//DTD SVG 1.1//EN" "http://www.w3.org/Graphics/SVG/1.1/DTD/svg11.dtd">
<svg version="1.1" id="Layer_1" xmlns="http://www.w3.org/2000/svg" xmlns:xlink="http://www.w3.org/1999/xlink" x="0px" y="0px"
	 width="248px" height="80px" viewBox="0 0 248 80" enable-background="new 0 0 248 80" xml:space="preserve">
<g opacity="0.99">
	<g>
		<defs>
			<rect id="SVGID_1_" x="6.453" y="30.307" width="94.228" height="18.782"/>
		</defs>
		<clipPath id="SVGID_2_">
			<use xlink:href="#SVGID_1_"  overflow="visible"/>
		</clipPath>
		<path clip-path="url(#SVGID_2_)" fill="#27242A" d="M14.708,42.045v3.073c0,2.528-1.29,3.818-4.026,3.818H10.63
			c-2.735,0-4.026-1.264-4.026-3.818V34.276c0-2.425,1.291-3.818,4.026-3.818h0.052c2.736,0,4.026,1.393,4.026,3.818v2.633
			c0,0.258-0.154,0.413-0.412,0.413h-0.208c-0.258,0-0.414-0.155-0.414-0.413v-2.168c0-2.297-0.773-3.304-3.019-3.304
			c-2.245,0-3.019,1.007-3.019,3.304v9.91c0,2.297,0.773,3.305,3.019,3.305c2.246,0,3.019-1.008,3.019-3.305v-2.606
			c0-0.258,0.156-0.412,0.414-0.412h0.208C14.554,41.633,14.708,41.787,14.708,42.045"/>
		<path clip-path="url(#SVGID_2_)" fill="none" stroke="#000000" stroke-width="0.3028" stroke-miterlimit="10" d="M14.708,42.045
			v3.073c0,2.528-1.29,3.818-4.026,3.818H10.63c-2.735,0-4.026-1.264-4.026-3.818V34.276c0-2.425,1.291-3.818,4.026-3.818h0.052
			c2.736,0,4.026,1.393,4.026,3.818v2.633c0,0.258-0.154,0.413-0.412,0.413h-0.208c-0.258,0-0.414-0.155-0.414-0.413v-2.168
			c0-2.297-0.773-3.304-3.019-3.304c-2.245,0-3.019,1.007-3.019,3.304v9.91c0,2.297,0.773,3.305,3.019,3.305
			c2.246,0,3.019-1.008,3.019-3.305v-2.606c0-0.258,0.156-0.412,0.414-0.412h0.208C14.554,41.633,14.708,41.787,14.708,42.045z"/>
		<path clip-path="url(#SVGID_2_)" fill="#27242A" d="M30.915,30.663h0.207c0.256,0,0.413,0.156,0.413,0.413v7.977h6.323v-7.977
			c0-0.256,0.155-0.413,0.412-0.413h0.207c0.259,0,0.412,0.156,0.412,0.413v17.241c0,0.26-0.153,0.413-0.412,0.413H38.27
			c-0.257,0-0.412-0.153-0.412-0.413v-8.283h-6.323v8.283c0,0.26-0.157,0.413-0.413,0.413h-0.207c-0.258,0-0.413-0.153-0.413-0.413
			V31.076C30.502,30.819,30.657,30.663,30.915,30.663"/>
		<path clip-path="url(#SVGID_2_)" fill="none" stroke="#000000" stroke-width="0.3028" stroke-miterlimit="10" d="M30.915,30.663
			h0.207c0.256,0,0.413,0.156,0.413,0.413v7.977h6.323v-7.977c0-0.256,0.155-0.413,0.412-0.413h0.207
			c0.259,0,0.412,0.156,0.412,0.413v17.241c0,0.26-0.153,0.413-0.412,0.413H38.27c-0.257,0-0.412-0.153-0.412-0.413v-8.283h-6.323
			v8.283c0,0.26-0.157,0.413-0.413,0.413h-0.207c-0.258,0-0.413-0.153-0.413-0.413V31.076
			C30.502,30.819,30.657,30.663,30.915,30.663z"/>
		<path clip-path="url(#SVGID_2_)" fill="#27242A" d="M55.612,48.729h-0.206c-0.258,0-0.413-0.153-0.413-0.411V31.077
			c0-0.258,0.155-0.413,0.413-0.413h0.206c0.258,0,0.413,0.155,0.413,0.413v17.242C56.025,48.576,55.87,48.729,55.612,48.729"/>
		<path clip-path="url(#SVGID_2_)" fill="none" stroke="#000000" stroke-width="0.3028" stroke-miterlimit="10" d="M55.612,48.729
			h-0.206c-0.258,0-0.413-0.153-0.413-0.411V31.077c0-0.258,0.155-0.413,0.413-0.413h0.206c0.258,0,0.413,0.155,0.413,0.413v17.242
			C56.025,48.576,55.87,48.729,55.612,48.729z"/>
		<path clip-path="url(#SVGID_2_)" fill="#27242A" d="M78.737,31.077v0.154c0,0.258-0.155,0.414-0.413,0.414h-3.071v16.672
			c0,0.26-0.155,0.413-0.413,0.413h-0.208c-0.258,0-0.412-0.153-0.412-0.413V31.645h-3.073c-0.258,0-0.412-0.156-0.412-0.414v-0.154
			c0-0.257,0.154-0.413,0.412-0.413h7.176C78.582,30.664,78.737,30.82,78.737,31.077"/>
		<path clip-path="url(#SVGID_2_)" fill="none" stroke="#000000" stroke-width="0.3028" stroke-miterlimit="10" d="M78.737,31.077
			v0.154c0,0.258-0.155,0.414-0.413,0.414h-3.071v16.672c0,0.26-0.155,0.413-0.413,0.413h-0.208c-0.258,0-0.412-0.153-0.412-0.413
			V31.645h-3.073c-0.258,0-0.412-0.156-0.412-0.414v-0.154c0-0.257,0.154-0.413,0.412-0.413h7.176
			C78.582,30.664,78.737,30.82,78.737,31.077z"/>
		<path clip-path="url(#SVGID_2_)" fill="#27242A" d="M100.157,48.729h-0.258c-0.233,0-0.387-0.103-0.44-0.36l-1.006-4.438H93.24
			l-1.006,4.438c-0.052,0.258-0.208,0.36-0.439,0.36h-0.206c-0.283,0-0.413-0.18-0.362-0.463l4-17.243
			c0.052-0.256,0.207-0.36,0.44-0.36h0.36c0.233,0,0.387,0.104,0.438,0.36l4.053,17.243C100.57,48.55,100.441,48.729,100.157,48.729
			 M98.222,42.949l-2.374-10.4l-2.375,10.4H98.222z"/>
		<path clip-path="url(#SVGID_2_)" fill="none" stroke="#000000" stroke-width="0.3028" stroke-miterlimit="10" d="M100.157,48.729
			h-0.258c-0.233,0-0.387-0.103-0.44-0.36l-1.006-4.438H93.24l-1.006,4.438c-0.052,0.258-0.208,0.36-0.439,0.36h-0.206
			c-0.283,0-0.413-0.18-0.362-0.463l4-17.243c0.052-0.256,0.207-0.36,0.44-0.36h0.36c0.233,0,0.387,0.104,0.438,0.36l4.053,17.243
			C100.57,48.55,100.441,48.729,100.157,48.729z M98.222,42.949l-2.374-10.4l-2.375,10.4H98.222z"/>
	</g>
</g>
<path fill="#CB8C38" d="M168.383,59.351c-1.859,0-3.368,1.509-3.368,3.367c0,1.86,1.509,3.368,3.368,3.368
	c1.858,0,3.367-1.508,3.367-3.368C171.75,60.859,170.241,59.351,168.383,59.351"/>
<path fill="#CB8C38" d="M117.02,15.053c-1.859,0-3.367,1.508-3.367,3.367c0,1.86,1.507,3.368,3.367,3.368
	c1.86,0,3.366-1.508,3.366-3.368C120.386,16.561,118.88,15.053,117.02,15.053"/>
<g>
	<defs>
		<path id="SVGID_3_" d="M184.252,52.859c-0.584-0.543-0.587-1.467-0.011-2.016l-0.014-0.012l10.058-9.553
			c0.5-0.475,1.266-0.504,1.803-0.082c0.593,0.536,0.606,1.468,0.022,2.023l-10.759,10.602L184.252,52.859z M174.346,33.532h1.525
			c0.01,0,0.02,0.002,0.024,0.007l8.729,7.732l-0.713,0.68L174.346,33.532z M169.532,26.161c0.246-0.213,0.561-0.331,0.884-0.331
			h7.605c0.325,0,0.642,0.118,0.888,0.334l11.256,9.844l-0.694,0.657l-10.678-9.455c-0.245-0.219-0.563-0.339-0.895-0.339h-9.187
			L169.532,26.161z M232.28,22.407l1.149,1.046h-2.314L232.28,22.407z M206.287,38.258l17.671-16.462
			c0.007-0.006,0.016-0.008,0.024-0.008h1.215l-18.97,17.764c-0.522,0.485-1.321,0.499-1.857,0.032l-15.726-13.753h0.877
			c0.323,0,0.637,0.117,0.881,0.328l14.037,12.134c0.262,0.225,0.584,0.336,0.905,0.336
			C205.685,38.628,206.022,38.505,206.287,38.258 M218.042,14.438l-0.79,4.209c-0.044,0.234-0.163,0.447-0.335,0.609L206.12,29.311
			c-0.517,0.482-1.311,0.497-1.847,0.035l-11.39-9.846c-0.246-0.212-0.559-0.33-0.883-0.33h-24.073
			c-0.324,0-0.639,0.118-0.885,0.331l-11.834,10.273c-0.251,0.219-0.573,0.338-0.906,0.338h-4.791c-0.335,0-0.659-0.123-0.911-0.343
			l-16.579-14.535c-0.254-0.222-0.578-0.345-0.913-0.345h-5.374c-1.604,0-3.074,1.087-3.381,2.663
			c-0.414,2.131,1.208,3.997,3.266,3.997h2.984c0.334,0,0.66,0.123,0.911,0.345l16.579,14.535c0.252,0.221,0.576,0.342,0.912,0.342
			h9.783c0.334,0,0.656-0.12,0.907-0.337l2.963-2.572c0.246-0.214,0.56-0.33,0.885-0.33h2.214c0.329,0,0.645,0.119,0.891,0.335
			l13.308,11.712c0.595,0.523,0.613,1.445,0.038,1.992l0.015,0.011l-1.986,1.886c-0.024,0.023-0.041,0.051-0.063,0.075
			c-0.023,0.025-0.055,0.043-0.078,0.069c-0.056,0.058-0.094,0.125-0.143,0.188c-0.074,0.089-0.146,0.177-0.205,0.27
			c-0.061,0.091-0.11,0.187-0.158,0.283c-0.052,0.097-0.104,0.194-0.144,0.296c-0.039,0.1-0.069,0.203-0.099,0.305
			c-0.03,0.104-0.06,0.205-0.08,0.312c-0.021,0.104-0.029,0.208-0.039,0.314c-0.01,0.105-0.019,0.214-0.019,0.319
			c0.001,0.105,0.012,0.209,0.022,0.316c0.012,0.105,0.021,0.21,0.041,0.318c0.021,0.104,0.052,0.204,0.083,0.308
			c0.03,0.104,0.062,0.205,0.103,0.305c0.042,0.102,0.095,0.197,0.146,0.297c0.05,0.094,0.1,0.187,0.158,0.276
			c0.064,0.097,0.14,0.186,0.215,0.275c0.049,0.059,0.086,0.124,0.139,0.181c0.022,0.023,0.05,0.04,0.073,0.063
			c0.027,0.025,0.044,0.056,0.072,0.081l4.578,4.097c-0.205,0.123-0.439,0.191-0.683,0.191h-2.634c-2.057,0-3.679,1.866-3.265,3.998
			c0.308,1.576,1.775,2.661,3.381,2.661l5.187-0.003c0.346,0,0.703-0.048,0.953-0.286l2.079-2.069l1.646,1.471
			c0.641,0.597,1.454,0.892,2.269,0.892c0.807,0,1.61-0.291,2.241-0.866c1.463-1.335,1.312-3.702-0.137-5.054l-1.303-1.141
			l10.742-10.693c0.258-0.246,0.581-0.345,0.938-0.345h5.172c0.351,0,0.688-0.134,0.945-0.372l17.882-16.677
			c0.007-0.007,0.015-0.01,0.023-0.01h10.994c0.564,0,1.074-0.344,1.284-0.87l3.577-6.566c0.089-0.224,0.031-0.478-0.146-0.639
			l-7.206-6.55c-0.253-0.232-0.585-0.358-0.93-0.358h0.856c-0.409,0-3.742-0.002-3.735,0h-5.278c-0.087,0-0.173-0.014-0.256-0.04
			l-5.405-1.714c-0.14-0.044-0.278-0.066-0.417-0.066C218.757,13.309,218.169,13.766,218.042,14.438"/>
	</defs>
	<clipPath id="SVGID_4_">
		<use xlink:href="#SVGID_3_"  overflow="visible"/>
	</clipPath>
	
		<linearGradient id="SVGID_5_" gradientUnits="userSpaceOnUse" x1="-180.8418" y1="434.1064" x2="-179.63" y2="434.1064" gradientTransform="matrix(98.814 0 0 -98.814 17991.9375 42935.0625)">
		<stop  offset="0" style="stop-color:#CB8C38"/>
		<stop  offset="1" style="stop-color:#EFBB59"/>
	</linearGradient>
	<rect x="121.939" y="13.309" clip-path="url(#SVGID_4_)" fill="url(#SVGID_5_)" width="120.068" height="51.961"/>
</g>
</svg>
