<?xml version="1.0" encoding="utf-8"?>
<!-- Generator: Adobe Illustrator 16.0.0, SVG Export Plug-In . SVG Version: 6.00 Build 0)  -->
<!DOCTYPE svg PUBLIC "-//W3C//DTD SVG 1.1//EN" "http://www.w3.org/Graphics/SVG/1.1/DTD/svg11.dtd">
<svg version="1.1" id="Layer_1" xmlns="http://www.w3.org/2000/svg" xmlns:xlink="http://www.w3.org/1999/xlink" x="0px" y="0px"
	 width="178px" height="140px" viewBox="0 0 178 140" enable-background="new 0 0 178 140" xml:space="preserve">
<g>
	<g>
		<path fill="#CB8C38" d="M76.664,76.581c-2.467,0-4.469,2.002-4.469,4.467c0,2.469,2.002,4.47,4.469,4.47
			c2.465,0,4.468-2.001,4.468-4.47C81.132,78.583,79.129,76.581,76.664,76.581"/>
		<path fill="#CB8C38" d="M8.511,17.802c-2.467,0-4.467,2-4.467,4.468c0,2.467,2,4.468,4.467,4.468c2.468,0,4.467-2,4.467-4.468
			C12.978,19.803,10.979,17.802,8.511,17.802"/>
		<g>
			<defs>
				<path id="SVGID_1_" d="M97.721,67.967c-0.775-0.722-0.778-1.946-0.015-2.675l-0.018-0.016l13.345-12.676
					c0.664-0.63,1.681-0.669,2.393-0.109c0.786,0.711,0.805,1.948,0.03,2.686L99.18,69.245L97.721,67.967z M84.576,42.321H86.6
					c0.014,0,0.026,0.003,0.032,0.009L98.215,52.59l-0.945,0.901L84.576,42.321z M78.189,32.541
					c0.327-0.283,0.744-0.438,1.173-0.438h10.092c0.431,0,0.851,0.157,1.177,0.443l14.937,13.061l-0.923,0.872L90.477,33.934
					c-0.324-0.291-0.748-0.45-1.187-0.45H77.101L78.189,32.541z M161.449,27.56l1.525,1.388h-3.071L161.449,27.56z M126.958,48.592
					l23.448-21.843c0.009-0.008,0.021-0.011,0.032-0.011h1.612L126.88,50.309c-0.693,0.645-1.754,0.661-2.465,0.042L103.55,32.103
					h1.163c0.429,0,0.845,0.156,1.169,0.436l18.626,16.1c0.347,0.298,0.774,0.445,1.2,0.445
					C126.159,49.083,126.607,48.92,126.958,48.592 M142.557,16.986l-1.049,5.585c-0.058,0.311-0.216,0.593-0.444,0.809
					l-14.326,13.341c-0.686,0.64-1.739,0.659-2.45,0.046l-15.113-13.064c-0.326-0.282-0.741-0.438-1.171-0.438H76.06
					c-0.43,0-0.847,0.157-1.174,0.439L59.184,37.335c-0.333,0.291-0.76,0.449-1.202,0.449h-6.357c-0.444,0-0.875-0.163-1.209-0.456
					L28.417,18.042c-0.337-0.295-0.768-0.458-1.212-0.458h-7.131c-2.129,0-4.079,1.442-4.486,3.533
					c-0.549,2.828,1.604,5.304,4.333,5.304h3.96c0.443,0,0.876,0.163,1.209,0.457l21.999,19.287c0.334,0.292,0.765,0.454,1.21,0.454
					H61.28c0.443,0,0.871-0.159,1.204-0.448l3.932-3.412c0.327-0.284,0.743-0.438,1.174-0.438h2.938
					c0.437,0,0.856,0.158,1.182,0.444l17.658,15.541c0.789,0.694,0.813,1.918,0.05,2.644l0.02,0.015l-2.636,2.502
					c-0.032,0.031-0.054,0.067-0.084,0.1c-0.031,0.033-0.072,0.057-0.103,0.093c-0.075,0.076-0.125,0.165-0.19,0.249
					c-0.098,0.117-0.192,0.234-0.272,0.357c-0.08,0.12-0.146,0.247-0.21,0.376c-0.068,0.127-0.137,0.257-0.19,0.392
					c-0.052,0.133-0.092,0.271-0.131,0.404c-0.04,0.138-0.079,0.272-0.105,0.413c-0.028,0.139-0.039,0.277-0.052,0.418
					c-0.013,0.141-0.024,0.283-0.024,0.424c0.001,0.14,0.016,0.277,0.03,0.42c0.015,0.14,0.027,0.278,0.054,0.422
					c0.028,0.138,0.068,0.271,0.11,0.409c0.04,0.137,0.081,0.272,0.136,0.403c0.056,0.136,0.125,0.262,0.194,0.395
					c0.067,0.124,0.132,0.247,0.21,0.366c0.085,0.129,0.186,0.247,0.286,0.365c0.064,0.078,0.113,0.165,0.183,0.24
					c0.03,0.031,0.067,0.054,0.098,0.085c0.036,0.033,0.058,0.073,0.095,0.106l6.075,5.437c-0.271,0.163-0.583,0.253-0.906,0.253
					h-3.494c-2.729,0-4.881,2.477-4.332,5.306c0.408,2.091,2.355,3.531,4.486,3.531l6.881-0.004c0.459,0,0.933-0.063,1.265-0.38
					l2.759-2.745l2.185,1.951c0.85,0.792,1.93,1.183,3.01,1.183c1.071,0,2.138-0.387,2.975-1.149
					c1.94-1.771,1.742-4.912-0.182-6.705l-1.729-1.514l14.254-14.19c0.342-0.326,0.771-0.458,1.244-0.458h6.862
					c0.465,0,0.913-0.177,1.254-0.493l23.729-22.129c0.009-0.009,0.019-0.013,0.03-0.013h14.588c0.748,0,1.425-0.457,1.704-1.154
					l4.746-8.713c0.118-0.297,0.041-0.634-0.194-0.848l-9.562-8.69c-0.336-0.308-0.775-0.476-1.233-0.476h1.137
					c-0.543,0-4.966-0.003-4.957,0h-7.004c-0.115,0-0.229-0.019-0.339-0.054l-7.173-2.274c-0.186-0.059-0.369-0.087-0.554-0.087
					C143.506,15.487,142.725,16.095,142.557,16.986"/>
			</defs>
			<clipPath id="SVGID_2_">
				<use xlink:href="#SVGID_1_"  overflow="visible"/>
			</clipPath>
			
				<linearGradient id="SVGID_3_" gradientUnits="userSpaceOnUse" x1="-216.5679" y1="464.3018" x2="-214.9603" y2="464.3018" gradientTransform="matrix(98.814 0 0 -98.814 21415.4375 45929.5)">
				<stop  offset="0" style="stop-color:#CB8C38"/>
				<stop  offset="1" style="stop-color:#EFBB59"/>
			</linearGradient>
			<rect x="15.039" y="15.488" clip-path="url(#SVGID_2_)" fill="url(#SVGID_3_)" width="159.317" height="68.948"/>
		</g>
	</g>
	<g opacity="0.99">
		<g>
			<defs>
				<rect id="SVGID_4_" x="26.336" y="99.59" width="125.029" height="24.923"/>
			</defs>
			<clipPath id="SVGID_5_">
				<use xlink:href="#SVGID_4_"  overflow="visible"/>
			</clipPath>
			<path clip-path="url(#SVGID_5_)" fill="#FFFFFF" d="M37.29,115.166v4.078c0,3.354-1.711,5.066-5.342,5.066h-0.069
				c-3.629,0-5.343-1.677-5.343-5.066v-14.386c0-3.219,1.713-5.066,5.343-5.066h0.069c3.63,0,5.342,1.848,5.342,5.066v3.493
				c0,0.343-0.205,0.549-0.547,0.549h-0.275c-0.342,0-0.549-0.206-0.549-0.549v-2.877c0-3.048-1.026-4.383-4.006-4.383
				s-4.005,1.335-4.005,4.383v13.149c0,3.049,1.026,4.386,4.005,4.386s4.006-1.337,4.006-4.386v-3.458
				c0-0.342,0.208-0.546,0.549-0.546h0.275C37.084,114.62,37.29,114.824,37.29,115.166"/>
			<path clip-path="url(#SVGID_5_)" fill="none" stroke="#FFFFFF" stroke-width="0.4017" stroke-miterlimit="10" d="M37.29,115.166
				v4.078c0,3.354-1.711,5.066-5.342,5.066h-0.069c-3.629,0-5.343-1.677-5.343-5.066v-14.386c0-3.219,1.713-5.066,5.343-5.066h0.069
				c3.63,0,5.342,1.848,5.342,5.066v3.493c0,0.343-0.205,0.549-0.547,0.549h-0.275c-0.342,0-0.549-0.206-0.549-0.549v-2.877
				c0-3.048-1.026-4.383-4.006-4.383s-4.005,1.335-4.005,4.383v13.149c0,3.049,1.026,4.386,4.005,4.386s4.006-1.337,4.006-4.386
				v-3.458c0-0.342,0.208-0.546,0.549-0.546h0.275C37.084,114.62,37.29,114.824,37.29,115.166z"/>
			<path clip-path="url(#SVGID_5_)" fill="#FFFFFF" d="M58.794,100.062h0.275c0.339,0,0.547,0.207,0.547,0.548v10.584h8.39V100.61
				c0-0.341,0.206-0.548,0.547-0.548h0.274c0.343,0,0.547,0.207,0.547,0.548v22.877c0,0.346-0.204,0.549-0.547,0.549h-0.274
				c-0.342,0-0.547-0.203-0.547-0.549v-10.991h-8.39v10.991c0,0.346-0.208,0.549-0.547,0.549h-0.275
				c-0.343,0-0.548-0.203-0.548-0.549V100.61C58.246,100.27,58.451,100.062,58.794,100.062"/>
			<path clip-path="url(#SVGID_5_)" fill="none" stroke="#FFFFFF" stroke-width="0.4017" stroke-miterlimit="10" d="M58.794,100.062
				h0.275c0.339,0,0.547,0.207,0.547,0.548v10.584h8.39V100.61c0-0.341,0.206-0.548,0.547-0.548h0.274
				c0.343,0,0.547,0.207,0.547,0.548v22.877c0,0.346-0.204,0.549-0.547,0.549h-0.274c-0.342,0-0.547-0.203-0.547-0.549v-10.991
				h-8.39v10.991c0,0.346-0.208,0.549-0.547,0.549h-0.275c-0.343,0-0.548-0.203-0.548-0.549V100.61
				C58.246,100.27,58.451,100.062,58.794,100.062z"/>
			<path clip-path="url(#SVGID_5_)" fill="#FFFFFF" d="M91.564,124.036h-0.273c-0.342,0-0.548-0.203-0.548-0.546v-22.879
				c0-0.343,0.206-0.548,0.548-0.548h0.273c0.342,0,0.548,0.205,0.548,0.548v22.879C92.112,123.833,91.906,124.036,91.564,124.036"
				/>
			<path clip-path="url(#SVGID_5_)" fill="none" stroke="#FFFFFF" stroke-width="0.4017" stroke-miterlimit="10" d="M91.564,124.036
				h-0.273c-0.342,0-0.548-0.203-0.548-0.546v-22.879c0-0.343,0.206-0.548,0.548-0.548h0.273c0.342,0,0.548,0.205,0.548,0.548
				v22.879C92.112,123.833,91.906,124.036,91.564,124.036z"/>
			<path clip-path="url(#SVGID_5_)" fill="#FFFFFF" d="M122.247,100.611v0.205c0,0.342-0.204,0.55-0.546,0.55h-4.077v22.121
				c0,0.346-0.205,0.549-0.546,0.549h-0.276c-0.343,0-0.546-0.203-0.546-0.549v-22.121h-4.077c-0.342,0-0.546-0.208-0.546-0.55
				v-0.205c0-0.341,0.204-0.548,0.546-0.548h9.522C122.043,100.063,122.247,100.271,122.247,100.611"/>
			<path clip-path="url(#SVGID_5_)" fill="none" stroke="#FFFFFF" stroke-width="0.4017" stroke-miterlimit="10" d="
				M122.247,100.611v0.205c0,0.342-0.204,0.55-0.546,0.55h-4.077v22.121c0,0.346-0.205,0.549-0.546,0.549h-0.276
				c-0.343,0-0.546-0.203-0.546-0.549v-22.121h-4.077c-0.342,0-0.546-0.208-0.546-0.55v-0.205c0-0.341,0.204-0.548,0.546-0.548
				h9.522C122.043,100.063,122.247,100.271,122.247,100.611z"/>
			<path clip-path="url(#SVGID_5_)" fill="#FFFFFF" d="M150.671,124.036h-0.344c-0.309,0-0.513-0.137-0.583-0.479l-1.334-5.889
				h-6.918l-1.334,5.889c-0.07,0.342-0.276,0.479-0.584,0.479H139.3c-0.375,0-0.546-0.239-0.479-0.614l5.308-22.88
				c0.068-0.342,0.275-0.479,0.583-0.479h0.48c0.308,0,0.513,0.138,0.579,0.479l5.378,22.88
				C151.219,123.797,151.047,124.036,150.671,124.036 M148.102,116.366l-3.149-13.801l-3.151,13.801H148.102z"/>
			<path clip-path="url(#SVGID_5_)" fill="none" stroke="#FFFFFF" stroke-width="0.4017" stroke-miterlimit="10" d="
				M150.671,124.036h-0.344c-0.309,0-0.513-0.137-0.583-0.479l-1.334-5.889h-6.918l-1.334,5.889
				c-0.07,0.342-0.276,0.479-0.584,0.479H139.3c-0.375,0-0.546-0.239-0.479-0.614l5.308-22.88c0.068-0.342,0.275-0.479,0.583-0.479
				h0.48c0.308,0,0.513,0.138,0.579,0.479l5.378,22.88C151.219,123.797,151.047,124.036,150.671,124.036z M148.102,116.366
				l-3.149-13.801l-3.151,13.801H148.102z"/>
		</g>
	</g>
</g>
</svg>
